<?xml version="1.0" standalone="no"?>
<!DOCTYPE svg PUBLIC "-//W3C//DTD SVG 20010904//EN"
 "http://www.w3.org/TR/2001/REC-SVG-20010904/DTD/svg10.dtd">
<svg version="1.0" xmlns="http://www.w3.org/2000/svg"
 width="1000.000000pt" height="1000.000000pt" viewBox="0 0 1000.000000 1000.000000"
 preserveAspectRatio="xMidYMid meet">
<metadata>
Created by potrace 1.11, written by Peter Selinger 2001-2013
</metadata>
<g transform="translate(0.000000,1000.000000) scale(0.100000,-0.100000)"
fill="#000000" stroke="none">
<path d="M0 5000 l0 -5000 5000 0 5000 0 0 5000 0 5000 -5000 0 -5000 0 0
-5000z m7510 2079 l0 -771 28 5 c15 4 79 17 142 31 361 78 703 55 956 -63 193
-91 394 -261 519 -441 247 -353 375 -888 336 -1405 -26 -341 -86 -592 -195
-820 -121 -251 -259 -413 -475 -554 -173 -112 -364 -173 -607 -193 -311 -25
-720 41 -1045 167 -84 33 -313 141 -348 164 -10 7 10 50 93 199 l106 190 0
1896 0 1896 -71 221 c-39 121 -73 227 -76 235 -4 12 43 14 316 14 l321 0 0
-771z m-5140 526 c140 -25 311 -77 433 -130 59 -26 110 -51 113 -56 3 -5 -45
-108 -107 -228 l-113 -219 -36 15 c-522 226 -974 215 -1237 -30 -81 -76 -130
-151 -167 -257 -28 -79 -30 -95 -30 -220 0 -160 14 -223 79 -355 93 -189 241
-348 524 -565 502 -386 648 -507 791 -657 128 -134 204 -239 266 -368 80 -168
86 -201 93 -490 l6 -250 107 -204 107 -204 -26 -21 c-75 -61 -210 -152 -304
-206 -252 -145 -504 -233 -789 -277 -137 -21 -498 -23 -655 -4 -146 18 -376
66 -485 101 -84 28 -251 102 -288 128 -11 7 9 58 93 243 59 129 108 235 109
236 1 1 53 -24 117 -55 229 -114 456 -170 722 -179 271 -9 432 24 656 136
l101 51 0 308 c0 333 -3 360 -57 467 -61 121 -200 281 -357 414 -45 37 -180
142 -301 233 -545 411 -762 630 -904 913 -109 219 -147 393 -137 645 8 217 38
346 122 516 148 303 465 514 869 579 128 20 553 14 685 -10z m2971 -4 c190
-41 366 -111 496 -197 194 -129 358 -358 427 -597 58 -199 59 -215 63 -854 l5
-593 -966 0 -966 0 0 -1210 0 -1210 -265 0 -265 0 0 2000 0 2000 -101 201
c-55 111 -98 206 -96 213 5 13 189 82 347 130 196 58 452 108 720 140 19 2
141 3 270 1 194 -2 252 -7 331 -24z"/>
<path d="M7850 5923 c-62 -10 -190 -47 -262 -74 l-78 -30 2 -1196 3 -1196 73
-28 c290 -111 632 -112 857 -4 362 176 547 585 549 1215 2 468 -101 812 -314
1052 -61 70 -204 174 -285 207 -111 46 -204 61 -372 60 -81 -1 -159 -4 -173
-6z"/>
<path d="M4735 7139 c-109 -13 -252 -43 -297 -62 l-38 -16 0 -610 0 -611 710
0 710 0 0 153 c-1 204 -16 436 -34 524 -65 307 -266 531 -543 604 -91 24 -373
34 -508 18z"/>
</g>
</svg>
